<?xml version="1.0" standalone="no"?>
<!DOCTYPE svg PUBLIC "-//W3C//DTD SVG 20010904//EN"
 "http://www.w3.org/TR/2001/REC-SVG-20010904/DTD/svg10.dtd">
<svg version="1.0" xmlns="http://www.w3.org/2000/svg"
 width="800.000000pt" height="600.000000pt" viewBox="0 0 800.000000 600.000000"
 preserveAspectRatio="xMidYMid meet">

<g transform="translate(0.000000,600.000000) scale(0.100000,-0.100000)"
fill="#000000" stroke="none">
<path d="M0 3000 l0 -3000 1918 2 c1054 0 1901 3 1882 5 -353 34 -603 91 -875
198 -154 60 -268 114 -393 186 -839 482 -1384 1304 -1504 2269 -17 136 -17
544 0 680 72 582 298 1113 663 1560 346 424 814 751 1339 935 202 70 476 131
700 154 51 5 -673 9 -1822 10 l-1908 1 0 -3000z"/>
<path d="M4235 5994 c17 -2 73 -9 125 -15 654 -73 1293 -383 1769 -860 389
-389 658 -866 790 -1399 66 -268 81 -400 81 -720 0 -320 -15 -452 -81 -720
-197 -799 -708 -1473 -1430 -1888 -353 -203 -795 -342 -1209 -381 -58 -5 646
-9 1813 -10 l1907 -1 0 3000 0 3000 -1897 -1 c-1044 -1 -1884 -4 -1868 -5z"/>
<path d="M3895 5024 c-311 -36 -522 -96 -758 -216 -323 -165 -609 -433 -799
-748 -65 -108 -81 -141 -71 -150 34 -30 655 -501 658 -498 1 2 20 45 43 95
155 357 481 614 870 689 114 22 319 22 433 1 159 -31 315 -97 454 -192 l68
-47 288 289 289 288 -61 49 c-306 244 -678 397 -1058 436 -96 9 -287 11 -356
4z"/>
<path d="M4060 3003 l0 -378 537 0 538 0 -3 -30 c-6 -54 -58 -193 -103 -271
-49 -86 -172 -223 -247 -275 l-49 -33 313 -243 c173 -134 316 -243 318 -243 3
0 46 46 97 103 218 245 370 542 443 869 64 285 73 589 25 826 l-10 52 -930 0
-929 0 0 -377z"/>
</g>
</svg>
